<svg xmlns="http://www.w3.org/2000/svg" width="1600" height="1000" viewBox="0 0 1600 1000" preserveAspectRatio="xMidYMid slice" role="img">
  <defs>
    <linearGradient id="g" x1="0" y1="0" x2="1" y2="1">
      <stop offset="0" stop-color="#1a4a36"/><stop offset="1" stop-color="#0a1f15"/>
    </linearGradient>
    <radialGradient id="glow" cx="0.78" cy="0.2" r="0.7">
      <stop offset="0" stop-color="#1f5640" stop-opacity="0.5"/><stop offset="1" stop-color="#1f5640" stop-opacity="0"/>
    </radialGradient>
  </defs>
  <rect width="1600" height="1000" fill="url(#g)"/>
  <rect width="1600" height="1000" fill="url(#glow)"/>
  
    <path d="M0 620 Q 400 500 800 600 T 1600 560 V 1000 H0 Z" fill="#0c2418" opacity="0.55"/>
    <path d="M0 720 Q 480 620 992 700 T 1600 680 V 1000 H0 Z" fill="#091c12" opacity="0.7"/><circle cx="107" cy="580" r="1.5" fill="#cdd5ce" opacity="0.45"/><circle cx="219" cy="587" r="1.5" fill="#cdd5ce" opacity="0.45"/><circle cx="332" cy="594" r="1.5" fill="#cdd5ce" opacity="0.45"/><circle cx="427" cy="601" r="1.5" fill="#cdd5ce" opacity="0.45"/><circle cx="539" cy="580" r="1.5" fill="#cdd5ce" opacity="0.45"/><circle cx="652" cy="587" r="1.5" fill="#cdd5ce" opacity="0.45"/><circle cx="747" cy="594" r="1.5" fill="#cdd5ce" opacity="0.45"/><circle cx="859" cy="601" r="1.5" fill="#cdd5ce" opacity="0.45"/><circle cx="972" cy="580" r="1.5" fill="#cdd5ce" opacity="0.45"/><circle cx="1067" cy="587" r="1.5" fill="#cdd5ce" opacity="0.45"/><circle cx="1179" cy="594" r="1.5" fill="#cdd5ce" opacity="0.45"/><circle cx="1292" cy="601" r="1.5" fill="#cdd5ce" opacity="0.45"/><circle cx="1387" cy="580" r="1.5" fill="#cdd5ce" opacity="0.45"/><circle cx="1499" cy="587" r="1.5" fill="#cdd5ce" opacity="0.45"/>
  <g fill="none" stroke="#9aa39c" stroke-width="1" opacity="0.18">
    <circle cx="1248" cy="240" r="160"/>
  </g>
  <text x="50%" y="494" text-anchor="middle" font-family="Georgia, serif" font-style="italic"
        font-size="35" fill="#c4ccc5" opacity="0.85">Professionals in conversation</text>
  <text x="50%" y="535" text-anchor="middle" font-family="Inter, Arial, sans-serif"
        font-size="19" letter-spacing="3" fill="#9aa39c" opacity="0.7">WHO WE ARE · BELONGING</text>
</svg>