<svg xmlns="http://www.w3.org/2000/svg" width="900" height="600" viewBox="0 0 900 600" preserveAspectRatio="xMidYMid slice" role="img">
  <defs>
    <linearGradient id="g" x1="0" y1="0" x2="1" y2="1">
      <stop offset="0" stop-color="#16412f"/><stop offset="1" stop-color="#07140d"/>
    </linearGradient>
    <radialGradient id="glow" cx="0.78" cy="0.2" r="0.7">
      <stop offset="0" stop-color="#1f5640" stop-opacity="0.5"/><stop offset="1" stop-color="#1f5640" stop-opacity="0"/>
    </radialGradient>
  </defs>
  <rect width="900" height="600" fill="url(#g)"/>
  <rect width="900" height="600" fill="url(#glow)"/>
  
    <path d="M0 372 Q 225 300 450 360 T 900 336.00000000000006 V 600 H0 Z" fill="#0c2418" opacity="0.55"/>
    <path d="M0 432 Q 270 372 558 420 T 900 408.00000000000006 V 600 H0 Z" fill="#091c12" opacity="0.7"/><circle cx="60" cy="348" r="1.5" fill="#cdd5ce" opacity="0.45"/><circle cx="126" cy="355" r="1.5" fill="#cdd5ce" opacity="0.45"/><circle cx="192" cy="362" r="1.5" fill="#cdd5ce" opacity="0.45"/><circle cx="240" cy="369" r="1.5" fill="#cdd5ce" opacity="0.45"/><circle cx="306" cy="348" r="1.5" fill="#cdd5ce" opacity="0.45"/><circle cx="372" cy="355" r="1.5" fill="#cdd5ce" opacity="0.45"/><circle cx="420" cy="362" r="1.5" fill="#cdd5ce" opacity="0.45"/><circle cx="486" cy="369" r="1.5" fill="#cdd5ce" opacity="0.45"/><circle cx="552" cy="348" r="1.5" fill="#cdd5ce" opacity="0.45"/><circle cx="600" cy="355" r="1.5" fill="#cdd5ce" opacity="0.45"/><circle cx="666" cy="362" r="1.5" fill="#cdd5ce" opacity="0.45"/><circle cx="732" cy="369" r="1.5" fill="#cdd5ce" opacity="0.45"/><circle cx="780" cy="348" r="1.5" fill="#cdd5ce" opacity="0.45"/><circle cx="846" cy="355" r="1.5" fill="#cdd5ce" opacity="0.45"/>
  <g fill="none" stroke="#9aa39c" stroke-width="1" opacity="0.18">
    <circle cx="702" cy="144" r="96"/>
  </g>
  <text x="50%" y="294" text-anchor="middle" font-family="Georgia, serif" font-style="italic"
        font-size="20" fill="#c4ccc5" opacity="0.85">Family picnic</text>
  <text x="50%" y="320" text-anchor="middle" font-family="Inter, Arial, sans-serif"
        font-size="11" letter-spacing="3" fill="#9aa39c" opacity="0.7">EVENT</text>
</svg>