<svg xmlns="http://www.w3.org/2000/svg" width="2000" height="1100" viewBox="0 0 2000 1100" preserveAspectRatio="xMidYMid slice" role="img">
  <defs>
    <linearGradient id="g" x1="0" y1="0" x2="1" y2="1">
      <stop offset="0" stop-color="#16412f"/><stop offset="1" stop-color="#07140d"/>
    </linearGradient>
    <radialGradient id="glow" cx="0.78" cy="0.2" r="0.7">
      <stop offset="0" stop-color="#1f5640" stop-opacity="0.5"/><stop offset="1" stop-color="#1f5640" stop-opacity="0"/>
    </radialGradient>
  </defs>
  <rect width="2000" height="1100" fill="url(#g)"/>
  <rect width="2000" height="1100" fill="url(#glow)"/>
  
    <path d="M0 682 Q 500 550 1000 660 T 2000 616.0000000000001 V 1100 H0 Z" fill="#0c2418" opacity="0.55"/>
    <path d="M0 792 Q 600 682 1240 770 T 2000 748 V 1100 H0 Z" fill="#091c12" opacity="0.7"/><circle cx="133" cy="638" r="1.5" fill="#cdd5ce" opacity="0.45"/><circle cx="273" cy="645" r="1.5" fill="#cdd5ce" opacity="0.45"/><circle cx="412" cy="652" r="1.5" fill="#cdd5ce" opacity="0.45"/><circle cx="533" cy="659" r="1.5" fill="#cdd5ce" opacity="0.45"/><circle cx="673" cy="638" r="1.5" fill="#cdd5ce" opacity="0.45"/><circle cx="812" cy="645" r="1.5" fill="#cdd5ce" opacity="0.45"/><circle cx="933" cy="652" r="1.5" fill="#cdd5ce" opacity="0.45"/><circle cx="1073" cy="659" r="1.5" fill="#cdd5ce" opacity="0.45"/><circle cx="1212" cy="638" r="1.5" fill="#cdd5ce" opacity="0.45"/><circle cx="1333" cy="645" r="1.5" fill="#cdd5ce" opacity="0.45"/><circle cx="1473" cy="652" r="1.5" fill="#cdd5ce" opacity="0.45"/><circle cx="1612" cy="659" r="1.5" fill="#cdd5ce" opacity="0.45"/><circle cx="1733" cy="638" r="1.5" fill="#cdd5ce" opacity="0.45"/><circle cx="1873" cy="645" r="1.5" fill="#cdd5ce" opacity="0.45"/>
  <g fill="none" stroke="#9aa39c" stroke-width="1" opacity="0.18">
    <circle cx="1560" cy="264" r="176"/>
  </g>
  <text x="50%" y="544" text-anchor="middle" font-family="Georgia, serif" font-style="italic"
        font-size="44" fill="#c4ccc5" opacity="0.85">Quiet Kigali evening</text>
  <text x="50%" y="594" text-anchor="middle" font-family="Inter, Arial, sans-serif"
        font-size="24" letter-spacing="3" fill="#9aa39c" opacity="0.7">APPLY · AMBIENT</text>
</svg>